<mxfile host="app.diagrams.net" modified="2023-11-18T09:08:47.910Z" agent="Mozilla/5.0 (Windows NT 10.0; Win64; x64) AppleWebKit/537.36 (KHTML, like Gecko) Chrome/119.0.0.0 Safari/537.36" etag="nFfOUz21NTQfNXSwhduI" version="22.1.3" type="github">
  <diagram id="C5RBs43oDa-KdzZeNtuy" name="Page-1">
    <mxGraphModel dx="1216" dy="1454" grid="1" gridSize="10" guides="1" tooltips="1" connect="1" arrows="1" fold="1" page="1" pageScale="1" pageWidth="1169" pageHeight="827" background="none" math="0" shadow="0">
      <root>
        <mxCell id="WIyWlLk6GJQsqaUBKTNV-0" />
        <mxCell id="WIyWlLk6GJQsqaUBKTNV-1" parent="WIyWlLk6GJQsqaUBKTNV-0" />
        <mxCell id="WIyWlLk6GJQsqaUBKTNV-2" value="" style="rounded=0;html=1;jettySize=auto;orthogonalLoop=1;fontSize=11;endArrow=block;endFill=0;endSize=8;strokeWidth=1;shadow=0;labelBackgroundColor=none;edgeStyle=orthogonalEdgeStyle;" parent="WIyWlLk6GJQsqaUBKTNV-1" source="WIyWlLk6GJQsqaUBKTNV-3" target="WIyWlLk6GJQsqaUBKTNV-6" edge="1">
          <mxGeometry relative="1" as="geometry" />
        </mxCell>
        <mxCell id="mVJE9dehO7Im3Tpj3Uij-0" style="edgeStyle=orthogonalEdgeStyle;rounded=0;orthogonalLoop=1;jettySize=auto;html=1;exitX=1;exitY=0.25;exitDx=0;exitDy=0;" edge="1" parent="WIyWlLk6GJQsqaUBKTNV-1" source="WIyWlLk6GJQsqaUBKTNV-3">
          <mxGeometry relative="1" as="geometry">
            <mxPoint x="290" y="64" as="targetPoint" />
          </mxGeometry>
        </mxCell>
        <mxCell id="WIyWlLk6GJQsqaUBKTNV-3" value="게임 시작" style="rounded=1;whiteSpace=wrap;html=1;fontSize=11;glass=0;strokeWidth=1;shadow=0;" parent="WIyWlLk6GJQsqaUBKTNV-1" vertex="1">
          <mxGeometry x="200" y="64" width="120" height="40" as="geometry" />
        </mxCell>
        <mxCell id="WIyWlLk6GJQsqaUBKTNV-4" value="Yes" style="rounded=0;html=1;jettySize=auto;orthogonalLoop=1;fontSize=11;endArrow=block;endFill=0;endSize=8;strokeWidth=1;shadow=0;labelBackgroundColor=none;edgeStyle=orthogonalEdgeStyle;entryX=0.5;entryY=1;entryDx=0;entryDy=0;" parent="WIyWlLk6GJQsqaUBKTNV-1" source="WIyWlLk6GJQsqaUBKTNV-6" target="WIyWlLk6GJQsqaUBKTNV-12" edge="1">
          <mxGeometry y="20" relative="1" as="geometry">
            <mxPoint as="offset" />
            <mxPoint x="260.0000000000001" y="273" as="targetPoint" />
          </mxGeometry>
        </mxCell>
        <mxCell id="WIyWlLk6GJQsqaUBKTNV-5" value="No" style="edgeStyle=orthogonalEdgeStyle;rounded=0;html=1;jettySize=auto;orthogonalLoop=1;fontSize=11;endArrow=block;endFill=0;endSize=8;strokeWidth=1;shadow=0;labelBackgroundColor=none;" parent="WIyWlLk6GJQsqaUBKTNV-1" source="WIyWlLk6GJQsqaUBKTNV-6" target="WIyWlLk6GJQsqaUBKTNV-7" edge="1">
          <mxGeometry y="10" relative="1" as="geometry">
            <mxPoint as="offset" />
          </mxGeometry>
        </mxCell>
        <mxCell id="WIyWlLk6GJQsqaUBKTNV-6" value="잔고에 돈이 있는가?" style="rhombus;whiteSpace=wrap;html=1;shadow=0;fontFamily=Helvetica;fontSize=11;align=center;strokeWidth=1;spacing=6;spacingTop=-4;" parent="WIyWlLk6GJQsqaUBKTNV-1" vertex="1">
          <mxGeometry x="200" y="154" width="120" height="90" as="geometry" />
        </mxCell>
        <mxCell id="mVJE9dehO7Im3Tpj3Uij-18" style="edgeStyle=orthogonalEdgeStyle;rounded=0;orthogonalLoop=1;jettySize=auto;html=1;exitX=0.5;exitY=0;exitDx=0;exitDy=0;entryX=1;entryY=0.5;entryDx=0;entryDy=0;" edge="1" parent="WIyWlLk6GJQsqaUBKTNV-1" source="WIyWlLk6GJQsqaUBKTNV-7" target="WIyWlLk6GJQsqaUBKTNV-3">
          <mxGeometry relative="1" as="geometry" />
        </mxCell>
        <mxCell id="WIyWlLk6GJQsqaUBKTNV-7" value="잔고 충전&amp;nbsp;" style="rounded=1;whiteSpace=wrap;html=1;fontSize=11;glass=0;strokeWidth=1;shadow=0;" parent="WIyWlLk6GJQsqaUBKTNV-1" vertex="1">
          <mxGeometry x="380" y="179" width="120" height="40" as="geometry" />
        </mxCell>
        <mxCell id="mVJE9dehO7Im3Tpj3Uij-11" style="edgeStyle=orthogonalEdgeStyle;rounded=0;orthogonalLoop=1;jettySize=auto;html=1;entryX=0.5;entryY=0;entryDx=0;entryDy=0;" edge="1" parent="WIyWlLk6GJQsqaUBKTNV-1" source="WIyWlLk6GJQsqaUBKTNV-12" target="mVJE9dehO7Im3Tpj3Uij-12">
          <mxGeometry relative="1" as="geometry">
            <mxPoint x="260" y="354" as="targetPoint" />
          </mxGeometry>
        </mxCell>
        <mxCell id="WIyWlLk6GJQsqaUBKTNV-12" value="게이머 배팅 시작" style="rounded=1;whiteSpace=wrap;html=1;fontSize=11;glass=0;strokeWidth=1;shadow=0;direction=west;" parent="WIyWlLk6GJQsqaUBKTNV-1" vertex="1">
          <mxGeometry x="200" y="284" width="120" height="40" as="geometry" />
        </mxCell>
        <mxCell id="mVJE9dehO7Im3Tpj3Uij-22" value="" style="edgeStyle=orthogonalEdgeStyle;rounded=0;orthogonalLoop=1;jettySize=auto;html=1;entryX=1;entryY=0.5;entryDx=0;entryDy=0;" edge="1" parent="WIyWlLk6GJQsqaUBKTNV-1" source="mVJE9dehO7Im3Tpj3Uij-12" target="mVJE9dehO7Im3Tpj3Uij-19">
          <mxGeometry relative="1" as="geometry">
            <mxPoint x="400" y="379" as="targetPoint" />
          </mxGeometry>
        </mxCell>
        <mxCell id="mVJE9dehO7Im3Tpj3Uij-12" value="5초 후 베팅 마감" style="ellipse;whiteSpace=wrap;html=1;" vertex="1" parent="WIyWlLk6GJQsqaUBKTNV-1">
          <mxGeometry x="200" y="354" width="120" height="50" as="geometry" />
        </mxCell>
        <mxCell id="mVJE9dehO7Im3Tpj3Uij-25" value="" style="edgeStyle=orthogonalEdgeStyle;rounded=0;orthogonalLoop=1;jettySize=auto;html=1;" edge="1" parent="WIyWlLk6GJQsqaUBKTNV-1" source="mVJE9dehO7Im3Tpj3Uij-19" target="mVJE9dehO7Im3Tpj3Uij-23">
          <mxGeometry relative="1" as="geometry" />
        </mxCell>
        <mxCell id="mVJE9dehO7Im3Tpj3Uij-19" value="2장씩 카드 분배" style="rounded=1;whiteSpace=wrap;html=1;fontSize=11;glass=0;strokeWidth=1;shadow=0;direction=west;" vertex="1" parent="WIyWlLk6GJQsqaUBKTNV-1">
          <mxGeometry x="370" y="359" width="130" height="40" as="geometry" />
        </mxCell>
        <mxCell id="mVJE9dehO7Im3Tpj3Uij-28" value="" style="edgeStyle=orthogonalEdgeStyle;rounded=0;orthogonalLoop=1;jettySize=auto;html=1;entryX=1;entryY=0.5;entryDx=0;entryDy=0;" edge="1" parent="WIyWlLk6GJQsqaUBKTNV-1" source="mVJE9dehO7Im3Tpj3Uij-23" target="mVJE9dehO7Im3Tpj3Uij-29">
          <mxGeometry relative="1" as="geometry">
            <mxPoint x="690" y="379.0769230769231" as="targetPoint" />
          </mxGeometry>
        </mxCell>
        <mxCell id="mVJE9dehO7Im3Tpj3Uij-34" value="" style="edgeStyle=orthogonalEdgeStyle;rounded=0;orthogonalLoop=1;jettySize=auto;html=1;entryX=0.5;entryY=0;entryDx=0;entryDy=0;" edge="1" parent="WIyWlLk6GJQsqaUBKTNV-1" source="mVJE9dehO7Im3Tpj3Uij-23" target="mVJE9dehO7Im3Tpj3Uij-37">
          <mxGeometry relative="1" as="geometry">
            <mxPoint x="594.5294117647059" y="454" as="targetPoint" />
          </mxGeometry>
        </mxCell>
        <mxCell id="mVJE9dehO7Im3Tpj3Uij-23" value="두 장 카드 합이&lt;br style=&quot;border-color: var(--border-color);&quot;&gt;8이상 인가?" style="rhombus;whiteSpace=wrap;html=1;shadow=0;fontFamily=Helvetica;fontSize=11;align=center;strokeWidth=1;spacing=6;spacingTop=-4;" vertex="1" parent="WIyWlLk6GJQsqaUBKTNV-1">
          <mxGeometry x="534.5" y="334" width="120" height="90" as="geometry" />
        </mxCell>
        <mxCell id="mVJE9dehO7Im3Tpj3Uij-67" value="" style="edgeStyle=orthogonalEdgeStyle;rounded=0;orthogonalLoop=1;jettySize=auto;html=1;" edge="1" parent="WIyWlLk6GJQsqaUBKTNV-1" source="mVJE9dehO7Im3Tpj3Uij-29" target="mVJE9dehO7Im3Tpj3Uij-66">
          <mxGeometry relative="1" as="geometry" />
        </mxCell>
        <mxCell id="mVJE9dehO7Im3Tpj3Uij-29" value="승패 확인" style="rounded=1;whiteSpace=wrap;html=1;fontSize=11;glass=0;strokeWidth=1;shadow=0;direction=west;" vertex="1" parent="WIyWlLk6GJQsqaUBKTNV-1">
          <mxGeometry x="700" y="359" width="130" height="40" as="geometry" />
        </mxCell>
        <mxCell id="mVJE9dehO7Im3Tpj3Uij-31" value="Yes" style="text;html=1;strokeColor=none;fillColor=none;align=center;verticalAlign=middle;whiteSpace=wrap;rounded=0;" vertex="1" parent="WIyWlLk6GJQsqaUBKTNV-1">
          <mxGeometry x="640" y="343" width="60" height="30" as="geometry" />
        </mxCell>
        <mxCell id="mVJE9dehO7Im3Tpj3Uij-58" value="" style="edgeStyle=orthogonalEdgeStyle;rounded=0;orthogonalLoop=1;jettySize=auto;html=1;" edge="1" parent="WIyWlLk6GJQsqaUBKTNV-1" source="mVJE9dehO7Im3Tpj3Uij-35" target="mVJE9dehO7Im3Tpj3Uij-52">
          <mxGeometry relative="1" as="geometry" />
        </mxCell>
        <mxCell id="mVJE9dehO7Im3Tpj3Uij-35" value="뱅커 카드 확인" style="rounded=1;whiteSpace=wrap;html=1;fontSize=11;glass=0;strokeWidth=1;shadow=0;direction=west;" vertex="1" parent="WIyWlLk6GJQsqaUBKTNV-1">
          <mxGeometry x="370" y="564" width="130" height="40" as="geometry" />
        </mxCell>
        <mxCell id="mVJE9dehO7Im3Tpj3Uij-36" value="No" style="text;html=1;strokeColor=none;fillColor=none;align=center;verticalAlign=middle;whiteSpace=wrap;rounded=0;" vertex="1" parent="WIyWlLk6GJQsqaUBKTNV-1">
          <mxGeometry x="540.5" y="414" width="60" height="30" as="geometry" />
        </mxCell>
        <mxCell id="mVJE9dehO7Im3Tpj3Uij-42" value="" style="edgeStyle=orthogonalEdgeStyle;rounded=0;orthogonalLoop=1;jettySize=auto;html=1;" edge="1" parent="WIyWlLk6GJQsqaUBKTNV-1" source="mVJE9dehO7Im3Tpj3Uij-37" target="mVJE9dehO7Im3Tpj3Uij-41">
          <mxGeometry relative="1" as="geometry" />
        </mxCell>
        <mxCell id="mVJE9dehO7Im3Tpj3Uij-47" style="edgeStyle=orthogonalEdgeStyle;rounded=0;orthogonalLoop=1;jettySize=auto;html=1;exitX=0.5;exitY=1;exitDx=0;exitDy=0;entryX=0;entryY=0.5;entryDx=0;entryDy=0;" edge="1" parent="WIyWlLk6GJQsqaUBKTNV-1" source="mVJE9dehO7Im3Tpj3Uij-37" target="mVJE9dehO7Im3Tpj3Uij-35">
          <mxGeometry relative="1" as="geometry" />
        </mxCell>
        <mxCell id="mVJE9dehO7Im3Tpj3Uij-37" value="플레이어 카드 &lt;br&gt;합이 5이하 인가?" style="rhombus;whiteSpace=wrap;html=1;shadow=0;fontFamily=Helvetica;fontSize=11;align=center;strokeWidth=1;spacing=6;spacingTop=-4;" vertex="1" parent="WIyWlLk6GJQsqaUBKTNV-1">
          <mxGeometry x="535" y="454" width="120" height="90" as="geometry" />
        </mxCell>
        <mxCell id="mVJE9dehO7Im3Tpj3Uij-54" style="edgeStyle=orthogonalEdgeStyle;rounded=0;orthogonalLoop=1;jettySize=auto;html=1;exitX=1;exitY=0.5;exitDx=0;exitDy=0;entryX=0;entryY=0.5;entryDx=0;entryDy=0;" edge="1" parent="WIyWlLk6GJQsqaUBKTNV-1" source="mVJE9dehO7Im3Tpj3Uij-41" target="mVJE9dehO7Im3Tpj3Uij-52">
          <mxGeometry relative="1" as="geometry" />
        </mxCell>
        <mxCell id="mVJE9dehO7Im3Tpj3Uij-41" value="플레이어 카드 뽑음" style="rounded=1;whiteSpace=wrap;html=1;fontSize=11;glass=0;strokeWidth=1;shadow=0;direction=west;" vertex="1" parent="WIyWlLk6GJQsqaUBKTNV-1">
          <mxGeometry x="370" y="479" width="130" height="40" as="geometry" />
        </mxCell>
        <mxCell id="mVJE9dehO7Im3Tpj3Uij-48" value="Yes" style="text;html=1;strokeColor=none;fillColor=none;align=center;verticalAlign=middle;whiteSpace=wrap;rounded=0;" vertex="1" parent="WIyWlLk6GJQsqaUBKTNV-1">
          <mxGeometry x="490" y="464" width="60" height="30" as="geometry" />
        </mxCell>
        <mxCell id="mVJE9dehO7Im3Tpj3Uij-49" value="No" style="text;html=1;strokeColor=none;fillColor=none;align=center;verticalAlign=middle;whiteSpace=wrap;rounded=0;" vertex="1" parent="WIyWlLk6GJQsqaUBKTNV-1">
          <mxGeometry x="510" y="554" width="60" height="30" as="geometry" />
        </mxCell>
        <mxCell id="mVJE9dehO7Im3Tpj3Uij-59" style="edgeStyle=orthogonalEdgeStyle;rounded=0;orthogonalLoop=1;jettySize=auto;html=1;exitX=1;exitY=0.5;exitDx=0;exitDy=0;entryX=0.5;entryY=0;entryDx=0;entryDy=0;" edge="1" parent="WIyWlLk6GJQsqaUBKTNV-1" source="mVJE9dehO7Im3Tpj3Uij-52" target="mVJE9dehO7Im3Tpj3Uij-29">
          <mxGeometry relative="1" as="geometry" />
        </mxCell>
        <mxCell id="mVJE9dehO7Im3Tpj3Uij-62" style="edgeStyle=orthogonalEdgeStyle;rounded=0;orthogonalLoop=1;jettySize=auto;html=1;exitX=0.5;exitY=1;exitDx=0;exitDy=0;entryX=0.5;entryY=0;entryDx=0;entryDy=0;" edge="1" parent="WIyWlLk6GJQsqaUBKTNV-1" source="mVJE9dehO7Im3Tpj3Uij-52" target="mVJE9dehO7Im3Tpj3Uij-61">
          <mxGeometry relative="1" as="geometry" />
        </mxCell>
        <mxCell id="mVJE9dehO7Im3Tpj3Uij-52" value="뱅커 카드&lt;br&gt;합이 7이상 인가?" style="rhombus;whiteSpace=wrap;html=1;shadow=0;fontFamily=Helvetica;fontSize=11;align=center;strokeWidth=1;spacing=6;spacingTop=-4;" vertex="1" parent="WIyWlLk6GJQsqaUBKTNV-1">
          <mxGeometry x="375" y="654" width="120" height="90" as="geometry" />
        </mxCell>
        <mxCell id="mVJE9dehO7Im3Tpj3Uij-60" value="Yes" style="text;html=1;strokeColor=none;fillColor=none;align=center;verticalAlign=middle;whiteSpace=wrap;rounded=0;" vertex="1" parent="WIyWlLk6GJQsqaUBKTNV-1">
          <mxGeometry x="495" y="664" width="60" height="30" as="geometry" />
        </mxCell>
        <mxCell id="mVJE9dehO7Im3Tpj3Uij-65" style="edgeStyle=orthogonalEdgeStyle;rounded=0;orthogonalLoop=1;jettySize=auto;html=1;exitX=0.5;exitY=1;exitDx=0;exitDy=0;entryX=0.5;entryY=0;entryDx=0;entryDy=0;" edge="1" parent="WIyWlLk6GJQsqaUBKTNV-1" source="mVJE9dehO7Im3Tpj3Uij-61" target="mVJE9dehO7Im3Tpj3Uij-29">
          <mxGeometry relative="1" as="geometry" />
        </mxCell>
        <mxCell id="mVJE9dehO7Im3Tpj3Uij-61" value="뱅커 카드 뽑음" style="rounded=1;whiteSpace=wrap;html=1;fontSize=11;glass=0;strokeWidth=1;shadow=0;direction=west;" vertex="1" parent="WIyWlLk6GJQsqaUBKTNV-1">
          <mxGeometry x="810" y="664" width="130" height="40" as="geometry" />
        </mxCell>
        <mxCell id="mVJE9dehO7Im3Tpj3Uij-64" value="No" style="text;html=1;strokeColor=none;fillColor=none;align=center;verticalAlign=middle;whiteSpace=wrap;rounded=0;" vertex="1" parent="WIyWlLk6GJQsqaUBKTNV-1">
          <mxGeometry x="460" y="724" width="60" height="30" as="geometry" />
        </mxCell>
        <mxCell id="mVJE9dehO7Im3Tpj3Uij-70" value="" style="edgeStyle=orthogonalEdgeStyle;rounded=0;orthogonalLoop=1;jettySize=auto;html=1;" edge="1" parent="WIyWlLk6GJQsqaUBKTNV-1" source="mVJE9dehO7Im3Tpj3Uij-66" target="mVJE9dehO7Im3Tpj3Uij-68">
          <mxGeometry relative="1" as="geometry" />
        </mxCell>
        <mxCell id="mVJE9dehO7Im3Tpj3Uij-66" value="배당" style="rounded=1;whiteSpace=wrap;html=1;fontSize=11;glass=0;strokeWidth=1;shadow=0;direction=west;" vertex="1" parent="WIyWlLk6GJQsqaUBKTNV-1">
          <mxGeometry x="700" y="254" width="130" height="40" as="geometry" />
        </mxCell>
        <mxCell id="mVJE9dehO7Im3Tpj3Uij-72" style="edgeStyle=orthogonalEdgeStyle;rounded=0;orthogonalLoop=1;jettySize=auto;html=1;exitX=0.5;exitY=0;exitDx=0;exitDy=0;entryX=1;entryY=0.5;entryDx=0;entryDy=0;" edge="1" parent="WIyWlLk6GJQsqaUBKTNV-1" source="mVJE9dehO7Im3Tpj3Uij-68" target="mVJE9dehO7Im3Tpj3Uij-71">
          <mxGeometry relative="1" as="geometry">
            <Array as="points">
              <mxPoint x="765" y="84" />
            </Array>
          </mxGeometry>
        </mxCell>
        <mxCell id="mVJE9dehO7Im3Tpj3Uij-77" style="edgeStyle=orthogonalEdgeStyle;rounded=0;orthogonalLoop=1;jettySize=auto;html=1;exitX=0;exitY=0.5;exitDx=0;exitDy=0;entryX=0;entryY=0.5;entryDx=0;entryDy=0;" edge="1" parent="WIyWlLk6GJQsqaUBKTNV-1" source="mVJE9dehO7Im3Tpj3Uij-68" target="WIyWlLk6GJQsqaUBKTNV-12">
          <mxGeometry relative="1" as="geometry" />
        </mxCell>
        <mxCell id="mVJE9dehO7Im3Tpj3Uij-68" value="파산인가?" style="rhombus;whiteSpace=wrap;html=1;shadow=0;fontFamily=Helvetica;fontSize=11;align=center;strokeWidth=1;spacing=6;spacingTop=-4;" vertex="1" parent="WIyWlLk6GJQsqaUBKTNV-1">
          <mxGeometry x="705" y="90" width="120" height="90" as="geometry" />
        </mxCell>
        <mxCell id="mVJE9dehO7Im3Tpj3Uij-71" value="게임 종료" style="rounded=1;whiteSpace=wrap;html=1;fontSize=11;glass=0;strokeWidth=1;shadow=0;" vertex="1" parent="WIyWlLk6GJQsqaUBKTNV-1">
          <mxGeometry x="535" y="64" width="120" height="40" as="geometry" />
        </mxCell>
        <mxCell id="mVJE9dehO7Im3Tpj3Uij-73" value="Yes" style="text;html=1;strokeColor=none;fillColor=none;align=center;verticalAlign=middle;whiteSpace=wrap;rounded=0;" vertex="1" parent="WIyWlLk6GJQsqaUBKTNV-1">
          <mxGeometry x="720" y="50" width="60" height="30" as="geometry" />
        </mxCell>
        <mxCell id="mVJE9dehO7Im3Tpj3Uij-76" value="No" style="text;html=1;strokeColor=none;fillColor=none;align=center;verticalAlign=middle;whiteSpace=wrap;rounded=0;" vertex="1" parent="WIyWlLk6GJQsqaUBKTNV-1">
          <mxGeometry x="645" y="104" width="60" height="30" as="geometry" />
        </mxCell>
      </root>
    </mxGraphModel>
  </diagram>
</mxfile>
